<?xml version="1.0" encoding="utf-8"?>
<!-- Generator: Adobe Illustrator 24.2.0, SVG Export Plug-In . SVG Version: 6.00 Build 0)  -->
<svg version="1.0" id="Layer_1" xmlns="http://www.w3.org/2000/svg" xmlns:xlink="http://www.w3.org/1999/xlink" x="0px" y="0px"
	 viewBox="0 0 3000 363.5" style="enable-background:new 0 0 3000 363.5;" xml:space="preserve">
<g>
	<g>
		<path d="M162.2,254.8c-11.4,6.1-23.4,10.8-40.1,10.8c-36.6,0-58.6-19.9-58.6-58.6v-55.6H36.9v-37.2h26.6V70.9h46.8v43.3h43.3v37.2
			h-43.3v50.9c0,15.2,7.3,21.4,19.6,21.4c6.4,0,15.2-2.3,21.4-5.9L162.2,254.8z"/>
		<path d="M330,171v90.2h-46.5V181c0-17.3-10.2-29-25.5-29c-18.2,0-30.2,12.6-30.2,41v68.2h-46.8V50.4h46.8v77.9
			c11.4-11.7,26.6-18.4,45.4-18.4C307.1,109.8,330,134.1,330,171z"/>
		<path d="M507.1,199.7H399.3c3.8,17.6,15.8,28.4,31.6,28.4c10.8,0,23.4-2.6,31.3-17l41.6,8.5c-12.6,31-39.2,46-72.9,46
			c-42.5,0-77.6-31.3-77.6-77.9c0-46.3,35.1-77.9,77.9-77.9c41.6,0,74.9,29.9,75.8,77.9V199.7z M400.2,171h60.6
			c-4.4-15.8-16.1-23.1-29.6-23.1C418.1,147.9,404.6,156.1,400.2,171z"/>
		<path d="M765.3,187.7c0,46.6-32.8,77.9-71.7,77.9c-19,0-34.3-5.9-45.7-16.1v11.7h-46.8V50.4h46.8v75.5
			c11.4-10.2,26.6-16.1,45.7-16.1C732.5,109.8,765.3,141.5,765.3,187.7z M719.3,187.7c0-22.5-14.9-38.1-35.4-38.1
			c-19,0-36,15.5-36,38.1c0,22.8,17,38.1,36,38.1C704.4,225.8,719.3,210.6,719.3,187.7z"/>
		<path d="M898.5,113.4l-2,46.8H888c-32.8,0-50.6,17-50.6,55v46h-46.8v-147h46.8v28.1c10.5-17.6,26.6-30.2,50.6-30.2
			C892.1,112.2,895,112.5,898.5,113.4z"/>
		<path d="M1073,261.2h-46.8v-11.7c-11.4,10.2-26.6,16.1-45.7,16.1c-38.9,0-71.7-31.3-71.7-77.9c0-46.3,32.8-77.9,71.7-77.9
			c19,0,34.3,5.9,45.7,16.1v-11.7h46.8V261.2z M1026.2,187.7c0-22.5-17-38.1-36-38.1c-20.5,0-35.4,15.5-35.4,38.1
			c0,22.8,14.9,38.1,35.4,38.1C1009.2,225.8,1026.2,210.6,1026.2,187.7z"/>
		<path d="M1256.9,171v90.2h-46.5V181c0-17.3-10.2-29-25.2-29c-18.4,0-30.4,12.6-30.4,41v68.2h-46.8v-147h46.8v14.1
			c11.1-11.7,26.6-18.4,45.1-18.4C1234,109.8,1256.9,134.1,1256.9,171z"/>
		<path d="M1444.3,261.2h-46.8v-11.7c-11.4,10.2-26.6,16.1-45.7,16.1c-38.9,0-71.7-31.3-71.7-77.9c0-46.3,32.8-77.9,71.7-77.9
			c19,0,34.3,5.9,45.7,16.1V50.4h46.8V261.2z M1397.4,187.7c0-22.5-17-38.1-36-38.1c-20.5,0-35.4,15.5-35.4,38.1
			c0,22.8,14.9,38.1,35.4,38.1C1380.4,225.8,1397.4,210.6,1397.4,187.7z"/>
		<path d="M1532.1,70.9c0,14.9-11.4,26.1-27.2,26.1c-15.8,0-26.9-11.1-26.9-26.1c0-14.3,11.1-26.6,26.9-26.6
			C1520.7,44.3,1532.1,56.6,1532.1,70.9z M1481.4,261.2v-147h46.8v147H1481.4z"/>
		<path d="M1714.5,171v90.2h-46.5V181c0-17.3-10.2-29-25.2-29c-18.4,0-30.4,12.6-30.4,41v68.2h-46.8v-147h46.8v14.1
			c11.1-11.7,26.6-18.4,45.1-18.4C1691.6,109.8,1714.5,134.1,1714.5,171z"/>
		<path d="M1898.6,246.6c0,45.4-34.5,70.3-82.3,70.3c-33.7,0-59.4-11.7-73.8-35.4l38.9-21.1c11.1,13.2,19.3,18.2,34.6,18.2
			c21.4,0,36.6-12.6,36.6-35.7v-4.1c-10.5,9.1-25.2,14.1-44.2,14.1c-38.4,0-70.9-30.4-70.9-72c0-40.7,32.5-70.9,70.9-70.9
			c19,0,33.7,5,44.2,14.1v-9.7h46V246.6z M1852.7,180.7c0-19.6-15.5-33.4-34.3-33.4c-20.5,0-35.1,13.8-35.1,33.4
			c0,19.6,14.6,33.7,35.1,33.7C1837.2,214.4,1852.7,200.3,1852.7,180.7z"/>
		<path d="M2166.8,187.7c0,46.6-32.8,77.9-71.7,77.9c-19,0-34.3-5.9-45.7-16.1V311h-46.8V114.2h46.8v11.7
			c11.4-10.2,26.6-16.1,45.7-16.1C2134,109.8,2166.8,141.5,2166.8,187.7z M2120.8,187.7c0-22.5-14.9-38.1-35.4-38.1
			c-19,0-36,15.5-36,38.1c0,22.8,17,38.1,36,38.1C2105.9,225.8,2120.8,210.6,2120.8,187.7z"/>
		<path d="M2336,199.7h-107.7c3.8,17.6,15.8,28.4,31.6,28.4c10.8,0,23.4-2.6,31.3-17l41.6,8.5c-12.6,31-39.2,46-72.9,46
			c-42.5,0-77.6-31.3-77.6-77.9c0-46.3,35.1-77.9,77.9-77.9c41.6,0,74.9,29.9,75.8,77.9V199.7z M2229.2,171h60.6
			c-4.4-15.8-16.1-23.1-29.6-23.1C2247,147.9,2233.6,156.1,2229.2,171z"/>
		<path d="M2513.5,187.7c0,46.6-36.9,77.6-80.5,77.6c-44.5,0-81.4-31-81.4-77.6c0-46.3,36.9-77.3,81.4-77.3
			C2476.6,110.4,2513.5,141.5,2513.5,187.7z M2468.4,187.7c0-22.8-17.3-38.1-35.4-38.1c-19,0-36.3,15.2-36.3,38.1
			c0,23.1,17.3,38.1,36.3,38.1C2451.1,225.8,2468.4,210.8,2468.4,187.7z"/>
		<path d="M2702.9,187.7c0,46.6-32.8,77.9-71.7,77.9c-19,0-34.3-5.9-45.7-16.1V311h-46.8V114.2h46.8v11.7
			c11.4-10.2,26.6-16.1,45.7-16.1C2670.1,109.8,2702.9,141.5,2702.9,187.7z M2656.9,187.7c0-22.5-14.9-38.1-35.4-38.1
			c-19,0-36,15.5-36,38.1c0,22.8,17,38.1,36,38.1C2642,225.8,2656.9,210.6,2656.9,187.7z"/>
		<path d="M2728.1,261.2V50.4h46.8v210.8H2728.1z"/>
		<path d="M2953.8,199.7H2846c3.8,17.6,15.8,28.4,31.6,28.4c10.8,0,23.4-2.6,31.3-17l41.6,8.5c-12.6,31-39.2,46-72.9,46
			c-42.5,0-77.6-31.3-77.6-77.9c0-46.3,35.1-77.9,77.9-77.9c41.6,0,75,29.9,75.8,77.9V199.7z M2846.9,171h60.6
			c-4.4-15.8-16.1-23.1-29.6-23.1C2864.8,147.9,2851.3,156.1,2846.9,171z"/>
	</g>
</g>
</svg>
